<mxfile host="app.diagrams.net" modified="2023-05-23T11:49:35.484Z" agent="Mozilla/5.0 (Windows NT 10.0; Win64; x64) AppleWebKit/537.36 (KHTML, like Gecko) Chrome/113.0.0.0 Safari/537.36" etag="RII7dw9hKnOdlZfb9BDS" version="21.3.3" type="device">
  <diagram name="Page-1" id="0w3FbkOkMHTzaI3nwqPz">
    <mxGraphModel dx="1050" dy="541" grid="1" gridSize="10" guides="1" tooltips="1" connect="1" arrows="1" fold="1" page="1" pageScale="1" pageWidth="827" pageHeight="1169" math="0" shadow="0">
      <root>
        <mxCell id="0" />
        <mxCell id="1" parent="0" />
        <mxCell id="n4ohudRYuwOqkdDvNy4U-6" value="Communicates with" style="edgeStyle=orthogonalEdgeStyle;rounded=0;orthogonalLoop=1;jettySize=auto;html=1;exitX=1;exitY=0.5;exitDx=0;exitDy=0;entryX=0;entryY=0.5;entryDx=0;entryDy=0;fontSize=14;" parent="1" source="n4ohudRYuwOqkdDvNy4U-1" target="n4ohudRYuwOqkdDvNy4U-2" edge="1">
          <mxGeometry relative="1" as="geometry" />
        </mxCell>
        <mxCell id="n4ohudRYuwOqkdDvNy4U-1" value="TextSummarizerXpress" style="rounded=0;whiteSpace=wrap;html=1;fontSize=14;" parent="1" vertex="1">
          <mxGeometry x="70" y="160" width="160" height="60" as="geometry" />
        </mxCell>
        <mxCell id="n4ohudRYuwOqkdDvNy4U-7" value="Uploads Documents&lt;br style=&quot;font-size: 14px;&quot;&gt;Choose Options" style="edgeStyle=orthogonalEdgeStyle;rounded=0;orthogonalLoop=1;jettySize=auto;html=1;exitX=1;exitY=0.5;exitDx=0;exitDy=0;entryX=0;entryY=0.5;entryDx=0;entryDy=0;fontSize=14;" parent="1" source="n4ohudRYuwOqkdDvNy4U-2" target="n4ohudRYuwOqkdDvNy4U-3" edge="1">
          <mxGeometry relative="1" as="geometry" />
        </mxCell>
        <mxCell id="n4ohudRYuwOqkdDvNy4U-2" value="User" style="rounded=0;whiteSpace=wrap;html=1;fontSize=14;" parent="1" vertex="1">
          <mxGeometry x="400" y="160" width="120" height="60" as="geometry" />
        </mxCell>
        <mxCell id="n4ohudRYuwOqkdDvNy4U-8" value="Generates Summary" style="edgeStyle=orthogonalEdgeStyle;rounded=0;orthogonalLoop=1;jettySize=auto;html=1;exitX=0.5;exitY=1;exitDx=0;exitDy=0;entryX=0.5;entryY=0;entryDx=0;entryDy=0;fontSize=14;" parent="1" source="n4ohudRYuwOqkdDvNy4U-3" target="n4ohudRYuwOqkdDvNy4U-4" edge="1">
          <mxGeometry relative="1" as="geometry" />
        </mxCell>
        <mxCell id="n4ohudRYuwOqkdDvNy4U-3" value="&lt;font style=&quot;font-size: 14px;&quot;&gt;Summarization Engine&lt;/font&gt;" style="rounded=0;whiteSpace=wrap;html=1;" parent="1" vertex="1">
          <mxGeometry x="720" y="160" width="200" height="60" as="geometry" />
        </mxCell>
        <mxCell id="n4ohudRYuwOqkdDvNy4U-9" value="Provides Summary" style="edgeStyle=orthogonalEdgeStyle;rounded=0;orthogonalLoop=1;jettySize=auto;html=1;exitX=0.5;exitY=1;exitDx=0;exitDy=0;entryX=0.5;entryY=0;entryDx=0;entryDy=0;fontSize=14;" parent="1" source="n4ohudRYuwOqkdDvNy4U-4" target="n4ohudRYuwOqkdDvNy4U-5" edge="1">
          <mxGeometry relative="1" as="geometry" />
        </mxCell>
        <mxCell id="n4ohudRYuwOqkdDvNy4U-4" value="Summary" style="rounded=0;whiteSpace=wrap;html=1;fontSize=14;" parent="1" vertex="1">
          <mxGeometry x="760" y="320" width="120" height="60" as="geometry" />
        </mxCell>
        <mxCell id="n4ohudRYuwOqkdDvNy4U-5" value="User" style="rounded=0;whiteSpace=wrap;html=1;fontSize=14;" parent="1" vertex="1">
          <mxGeometry x="760" y="490" width="120" height="60" as="geometry" />
        </mxCell>
      </root>
    </mxGraphModel>
  </diagram>
</mxfile>
